<svg height="46" viewBox="0 0 46 46" width="46" xmlns="http://www.w3.org/2000/svg"><g fill="none" transform="translate(.733)"><path d="m22.307 0a22.061 22.061 0 0 1 22.307 21.807 22.061 22.061 0 0 1 -22.307 21.807 22.061 22.061 0 0 1 -22.307-21.807 22.061 22.061 0 0 1 22.307-21.807z"/><path d="m22.30684662 2.99999237c-5.16986084 0-10.02682114 1.9647522-13.67618179 5.53231049-3.63098908 3.54961204-5.63066864 8.26393127-5.63066864 13.27455139s1.99967956 9.72494125 5.63066864 13.27453995c3.64936065 3.56756973 8.50632095 5.53231048 13.67618179 5.53231048s10.02682114-1.96474075 13.67617798-5.53231048c3.63099289-3.5495987 5.63067245-8.26391983 5.63067245-13.27453995s-1.99967956-9.72493935-5.63067245-13.27455139c-3.64935684-3.56755829-8.50631714-5.53231049-13.67617798-5.53231049m0-3c12.31972885 0 22.30685043 9.76327133 22.30685043 21.80686188 0 12.04359054-9.98712158 21.80685043-22.30685043 21.80685043s-22.30685043-9.76325989-22.30685043-21.80685043c0-12.04359055 9.98712158-21.80686188 22.30685043-21.80686188z" fill="#f9c732"/></g><g fill-rule="evenodd"><path d="m69.488-174.208 10.32 10.06 9.981-9.73 2.066 2.01-9.981 9.734-2 1.946-2.062-2.012-10.32-10.06z" fill="#ef4632" transform="translate(-56.703 192.102)"/><path d="m113.23-194.711 4.563-4.563 4.563 4.563-4.563 4.563z" fill="#f9c732" transform="translate(-94.823 213.047)"/></g></svg>